<svg width="11" height="12" viewBox="0 0 11 12" fill="none" xmlns="http://www.w3.org/2000/svg">
<path fill-rule="evenodd" clip-rule="evenodd" d="M10.1812 11.1677V6.26482C10.1812 5.81369 9.83706 5.44767 9.41291 5.44767H9.15682V3.81337C9.15682 1.71942 7.54027 0 5.5716 0C3.60293 0 1.98638 1.71942 1.98638 3.81337V5.44767H1.7303C1.30615 5.44767 0.962036 5.81369 0.962036 6.26482V11.1677C0.962036 11.6189 1.30615 11.9849 1.7303 11.9849H9.41291C9.83706 11.9849 10.1812 11.6189 10.1812 11.1677ZM7.62027 3.81337V5.44767H3.52288V3.81337C3.52288 2.61318 4.44319 1.6343 5.57158 1.6343C6.69996 1.6343 7.62027 2.61318 7.62027 3.81337Z" fill="#7B8091"/>
</svg>
